<?xml version="1.0" encoding="utf-8"?>
<!-- Generator: Adobe Illustrator 25.0.0, SVG Export Plug-In . SVG Version: 6.00 Build 0)  -->
<svg version="1.1" id="Camada_1" xmlns="http://www.w3.org/2000/svg" xmlns:xlink="http://www.w3.org/1999/xlink" x="0px" y="0px"
	 viewBox="0 0 16 10.92" style="enable-background:new 0 0 16 10.92;" xml:space="preserve">
<style type="text/css">
	.st0{fill:#FF781E;}
	.st1{fill:#0D0D0D;}
	.st2{fill:#0E0D0D;}
	.st3{fill:#C8D3D3;}
	.st4{fill:#BECCCC;}
	.st5{fill:#D4C8C8;}
	.st6{fill:#0C0C0C;}
	.st7{fill:#806969;}
	.st8{fill:#FDFDFD;}
	.st9{fill:#FCFCFC;}
	.st10{fill:#FFFFFF;}
	.st11{fill:#D1D1D1;}
	.st12{fill:#D1D0D0;}
	.st13{fill:#3E0C0C;}
	.st14{fill:#F8F9F9;}
	.st15{fill:#F8FAFA;}
	.st16{fill:#FEFEFE;}
	.st17{fill:#131212;}
	.st18{fill:#131111;}
	.st19{fill:#161414;}
	.st20{fill:#0F0F0F;}
	.st21{fill:#0F0E0E;}
</style>
<g>
	<path class="st0" d="M11.06,8.5c0.01,0.04,0.02,0.08,0.02,0.12c0.03,0.16,0.06,0.32,0.09,0.48c0.03,0.14,0.05,0.28,0.08,0.42
		c0,0.01,0,0.01,0,0.02c0.03,0.11,0.03,0.22,0.03,0.33c0.01,0.16-0.04,0.31-0.1,0.45c-0.01,0.02-0.02,0.04-0.04,0.07
		c-0.1,0.15-0.22,0.27-0.37,0.37c-0.12,0.08-0.25,0.12-0.39,0.15c-0.04,0.01-0.07,0.01-0.11,0.01c-0.05,0-0.1,0-0.15,0
		c-0.21,0-0.39-0.07-0.56-0.18c-0.17-0.12-0.29-0.28-0.38-0.46c-0.04-0.08-0.07-0.17-0.11-0.25C9.07,9.99,9.07,9.99,9.03,10
		c-0.01,0-0.02,0-0.03,0c-0.1,0.03-0.2,0.02-0.3,0.02C8.57,10,8.43,9.97,8.31,9.9C8.19,9.82,8.08,9.73,8,9.62
		C7.99,9.6,7.98,9.59,7.97,9.57c0,0-0.01,0-0.01-0.01c-0.02,0-0.02,0.02-0.03,0.03C7.85,9.72,7.73,9.81,7.61,9.89
		c-0.07,0.05-0.16,0.08-0.24,0.1C7.35,9.99,7.32,10,7.3,10c-0.1,0.03-0.2,0.02-0.3,0.02c-0.04,0-0.08-0.02-0.12-0.02
		c-0.03-0.01-0.03,0-0.04,0.02c-0.04,0.09-0.08,0.18-0.12,0.27c-0.07,0.14-0.16,0.27-0.27,0.37c-0.13,0.12-0.28,0.2-0.45,0.24
		c-0.07,0.02-0.14,0.03-0.21,0.02c-0.03,0-0.06,0-0.1,0c-0.09,0.01-0.17-0.02-0.25-0.04c-0.05-0.01-0.09-0.03-0.14-0.05
		c-0.13-0.06-0.25-0.14-0.35-0.24c-0.13-0.13-0.23-0.28-0.27-0.46c-0.03-0.13-0.03-0.25-0.03-0.38c0-0.1,0.03-0.19,0.05-0.28
		c0.05-0.28,0.1-0.55,0.15-0.83c0-0.02,0.01-0.05,0.01-0.07c0.01-0.06,0.02-0.06-0.05-0.06C4.7,8.53,4.62,8.54,4.53,8.55
		C4.45,8.56,4.37,8.57,4.28,8.58C4.17,8.6,4.05,8.61,3.94,8.63c-0.1,0.01-0.2,0.03-0.3,0.04C3.51,8.69,3.38,8.71,3.26,8.73
		C3.14,8.75,3.02,8.77,2.9,8.79C2.77,8.81,2.63,8.83,2.49,8.85c-0.17,0.03-0.35,0.06-0.52,0.1C1.77,8.99,1.56,9.03,1.35,9.07
		C1.1,9.12,0.85,9.18,0.6,9.23C0.48,9.26,0.36,9.29,0.24,9.32c-0.04,0.01-0.07,0.01-0.11,0c-0.05-0.02-0.09-0.05-0.1-0.1
		C0.02,9.19,0.01,9.16,0.02,9.13c0-0.01,0-0.02,0-0.03c0-2.95,0-5.91,0-8.86c0-0.03,0-0.07,0.01-0.1C0.04,0.04,0.14,0,0.22,0.01
		c0.07,0.01,0.14,0.03,0.21,0.04c0.19,0.04,0.38,0.07,0.58,0.11c0.17,0.03,0.33,0.06,0.5,0.09C1.7,0.29,1.89,0.33,2.09,0.37
		C2.27,0.4,2.46,0.44,2.65,0.47c0.19,0.04,0.38,0.07,0.57,0.11c0.21,0.04,0.43,0.08,0.64,0.12c0.19,0.04,0.38,0.07,0.58,0.11
		c0.04,0.01,0.08,0.02,0.12,0.02c0.06,0.01,0.09,0.05,0.11,0.1c0.01,0.03,0.01,0.07,0.01,0.1c0,0.39,0,0.78,0,1.16
		c0,0.21,0,0.41,0,0.62c0,0.05,0,0.05,0.05,0.06C4.82,2.9,4.91,2.91,5,2.92c0.1,0.01,0.2,0.02,0.3,0.03c0.1,0.01,0.2,0.02,0.3,0.03
		C5.74,3,5.86,3.01,5.99,3.02C6.05,3.03,6.1,3.03,6.16,3.04c0.08,0.01,0.17,0.01,0.25,0.02c0.18,0.01,0.36,0.02,0.54,0.03
		c0.02,0,0.04,0,0.06,0C7.21,3.1,7.42,3.1,7.62,3.11c0.22,0.01,0.44,0.01,0.65,0c0.19-0.01,0.38,0,0.58-0.02
		c0.13-0.01,0.27-0.01,0.4-0.02c0.16-0.01,0.32-0.02,0.48-0.03C9.82,3.04,9.9,3.03,9.98,3.03C10.1,3.02,10.22,3,10.34,2.99
		c0.1-0.01,0.2-0.02,0.3-0.03c0.1-0.01,0.2-0.02,0.3-0.03c0.08-0.01,0.17-0.02,0.25-0.03c0.01,0,0.02,0,0.03,0
		c0.08-0.02,0.07,0,0.07-0.08c0-0.59,0-1.18,0-1.77c0-0.03,0-0.07,0.01-0.1c0.02-0.06,0.05-0.09,0.11-0.1
		c0.11-0.02,0.21-0.04,0.32-0.06c0.15-0.03,0.3-0.06,0.45-0.09c0.19-0.04,0.38-0.07,0.57-0.11c0.22-0.04,0.43-0.08,0.65-0.12
		c0.19-0.04,0.38-0.07,0.56-0.11c0.22-0.04,0.43-0.08,0.65-0.12c0.19-0.04,0.37-0.07,0.56-0.11c0.2-0.04,0.39-0.07,0.59-0.11
		c0.06-0.01,0.15,0.01,0.18,0.07c0.02,0.03,0.02,0.06,0.03,0.1c0,0.01,0,0.03,0,0.04c0,2.96,0,5.93,0,8.89c0,0.03,0,0.07-0.01,0.1
		c-0.02,0.08-0.1,0.13-0.18,0.11C15.7,9.3,15.6,9.28,15.5,9.25c-0.32-0.08-0.63-0.15-0.95-0.21c-0.2-0.04-0.4-0.08-0.61-0.12
		c-0.17-0.03-0.35-0.06-0.52-0.09c-0.17-0.03-0.34-0.06-0.5-0.09c-0.15-0.02-0.3-0.05-0.45-0.07c-0.13-0.02-0.27-0.04-0.4-0.06
		c-0.11-0.02-0.23-0.03-0.34-0.04c-0.12-0.02-0.24-0.03-0.36-0.05c-0.08-0.01-0.17-0.02-0.25-0.03C11.09,8.49,11.07,8.49,11.06,8.5z
		"/>
	<path class="st1" d="M6.62,2.25C6.61,2.31,6.59,2.37,6.58,2.43c0,0.02-0.01,0.04-0.01,0.06C6.56,2.52,6.55,2.53,6.52,2.53
		c-0.09,0-0.08,0-0.1-0.08C6.4,2.38,6.39,2.32,6.37,2.25c-0.01-0.01,0-0.02-0.01-0.03c0,0.01,0,0.02,0,0.03
		C6.35,2.34,6.35,2.43,6.35,2.53c0,0.08,0.01,0.07-0.07,0.07c-0.01,0-0.02-0.01-0.02-0.02c0-0.01,0-0.01,0-0.02
		c0-0.13,0.01-0.27,0.01-0.4c0-0.01,0-0.02,0-0.03c0-0.02,0.01-0.03,0.03-0.03c0.03,0,0.06,0,0.09,0c0.02,0,0.04,0.01,0.04,0.03
		C6.44,2.17,6.45,2.2,6.45,2.23C6.47,2.28,6.48,2.34,6.49,2.4C6.5,2.41,6.5,2.42,6.5,2.42c0,0.01,0,0.02,0,0.02
		c0-0.01,0-0.02,0-0.02c0-0.01,0-0.02,0.01-0.02c0.02-0.07,0.03-0.15,0.05-0.22c0-0.01,0-0.02,0-0.03c0.01-0.04,0.02-0.05,0.06-0.05
		c0.02,0,0.05,0,0.07,0c0.03,0,0.04,0.01,0.04,0.04c0,0.05,0.01,0.1,0.01,0.15c0,0.09,0.01,0.18,0.01,0.27c0,0.03,0,0.03-0.03,0.03
		c-0.07,0-0.06,0-0.06-0.06c0-0.02,0-0.04,0-0.06c-0.01-0.06,0-0.13-0.01-0.19C6.64,2.27,6.65,2.25,6.62,2.25z"/>
	<path class="st1" d="M8.65,2.35c0,0.04,0,0.09-0.01,0.13C8.62,2.56,8.59,2.59,8.52,2.6c-0.06,0.01-0.12,0-0.18,0
		c-0.01,0-0.02-0.01-0.02-0.02c0-0.01,0-0.01,0-0.02c0-0.14,0-0.27,0-0.41c0-0.01,0-0.02,0-0.03c0-0.01,0.01-0.02,0.02-0.02
		c0.07-0.01,0.13-0.01,0.2,0c0.06,0.01,0.1,0.05,0.11,0.1c0.01,0.03,0.01,0.07,0.01,0.1C8.65,2.32,8.65,2.34,8.65,2.35z"/>
	<path class="st1" d="M7.34,2.35c0-0.03,0-0.06,0.01-0.1c0-0.02,0.01-0.04,0.01-0.06C7.38,2.14,7.41,2.11,7.46,2.1
		c0.04-0.01,0.08-0.01,0.13,0c0.05,0.01,0.08,0.04,0.1,0.09C7.7,2.23,7.7,2.27,7.7,2.3c0,0.06,0,0.11-0.01,0.17
		c0,0.02-0.01,0.03-0.01,0.05C7.66,2.56,7.64,2.59,7.59,2.6c-0.05,0.01-0.09,0.01-0.14,0C7.41,2.59,7.38,2.56,7.36,2.51
		C7.34,2.46,7.35,2.4,7.34,2.35z"/>
	<path class="st2" d="M9.55,2.59c-0.1,0-0.19,0-0.28,0c-0.01,0-0.02-0.01-0.02-0.02c0-0.04,0-0.07,0.03-0.11
		c0.05-0.07,0.09-0.15,0.14-0.23C9.42,2.23,9.43,2.22,9.43,2.2c-0.03-0.01-0.06,0-0.09,0c-0.02,0-0.04,0-0.06,0
		c-0.01,0-0.01,0-0.01-0.01c-0.01-0.02-0.01-0.05,0-0.07c0,0,0.01-0.01,0.02-0.01c0.09,0,0.17,0,0.26,0c0.02,0,0.02,0.01,0.02,0.02
		c0,0.04,0,0.07-0.03,0.1C9.47,2.31,9.43,2.38,9.38,2.46C9.38,2.47,9.37,2.48,9.36,2.49c0,0,0,0.01,0.01,0.01c0.04,0,0.08,0,0.11,0
		c0.07,0,0.06,0,0.06,0.07C9.55,2.58,9.55,2.58,9.55,2.59z"/>
	<path class="st3" d="M6.62,2.25c0-0.01,0-0.02,0-0.02c0,0,0.01,0,0.01,0c0,0.01,0.01,0.01,0.01,0.02C6.64,2.32,6.65,2.4,6.64,2.48
		C6.63,2.47,6.63,2.45,6.63,2.44c0-0.05,0-0.1,0-0.15C6.63,2.28,6.63,2.26,6.62,2.25z"/>
	<path class="st4" d="M6.36,2.25c0-0.01,0-0.02,0-0.03c0-0.01,0.01-0.01,0.01,0c0,0.01,0.01,0.02,0,0.03
		C6.37,2.25,6.37,2.25,6.36,2.25z"/>
	<path class="st5" d="M6.49,2.43c0-0.01,0-0.02,0-0.02c0,0,0.01,0,0.01,0c0,0.01,0,0.02,0,0.02C6.5,2.43,6.5,2.43,6.49,2.43z"/>
	<path class="st6" d="M0.18,0.17C0.24,0.18,0.3,0.19,0.35,0.2c0.41,0.08,0.82,0.16,1.24,0.24c0.36,0.07,0.71,0.14,1.07,0.2
		c0.33,0.06,0.65,0.12,0.98,0.19c0.27,0.05,0.54,0.1,0.81,0.15c0.08,0.02,0.07,0,0.07,0.09c0,0.62,0,1.25,0,1.87
		c0,0.02,0,0.04,0,0.06c0,0.02,0.01,0.03,0.03,0.03C4.62,3.05,4.7,3.06,4.78,3.07C4.91,3.08,5.05,3.1,5.18,3.11
		c0.09,0.01,0.19,0.02,0.28,0.03c0.12,0.01,0.25,0.02,0.37,0.04C5.89,3.18,5.95,3.19,6,3.19c0.21,0.01,0.42,0.03,0.63,0.04
		c0.31,0.02,0.62,0.03,0.93,0.04c0.26,0.01,0.52,0.01,0.79,0c0.24-0.01,0.48-0.01,0.72-0.02c0.21-0.01,0.42-0.02,0.63-0.04
		c0.2-0.01,0.41-0.03,0.61-0.05c0.2-0.02,0.41-0.04,0.61-0.06c0.17-0.02,0.34-0.04,0.51-0.06c0.01,0,0.02,0,0.03,0
		c0.01,0,0.02-0.01,0.02-0.03c0-0.02,0-0.04,0-0.06c0-0.62,0-1.24,0-1.86c0-0.11-0.02-0.09,0.09-0.11c0.26-0.05,0.52-0.1,0.78-0.15
		c0.23-0.04,0.47-0.09,0.7-0.13c0.26-0.05,0.52-0.1,0.78-0.15c0.26-0.05,0.52-0.1,0.78-0.15c0.23-0.04,0.47-0.09,0.7-0.13
		c0.16-0.03,0.32-0.06,0.48-0.09c0,0,0.01,0,0.01,0c0.01,0,0.02,0,0.02,0.02c0,0.01,0,0.01,0,0.02c0,0.02,0,0.03,0,0.05
		c0,2.94,0,5.88,0,8.82c0,0.03,0,0.06-0.01,0.08c-0.02,0.01-0.04-0.01-0.06-0.01c-0.43-0.11-0.87-0.21-1.3-0.3
		c-0.3-0.06-0.6-0.12-0.9-0.17c-0.24-0.04-0.48-0.08-0.72-0.12c-0.18-0.03-0.37-0.06-0.55-0.08C12.14,8.46,12,8.44,11.86,8.43
		c-0.15-0.02-0.31-0.04-0.46-0.06c-0.13-0.02-0.27-0.03-0.4-0.04c-0.04,0-0.07-0.01-0.11-0.01c-0.02,0-0.02,0.01-0.02,0.02
		c0.01,0.04,0.01,0.08,0.02,0.11c0.03,0.15,0.06,0.3,0.08,0.45c0.02,0.1,0.04,0.2,0.06,0.31c0.02,0.12,0.04,0.23,0.07,0.35
		c0,0.01,0,0.01,0,0.02c0.03,0.09,0.03,0.18,0.03,0.27c0,0.04,0,0.08,0,0.12c0,0.06-0.01,0.11-0.03,0.16
		c-0.04,0.13-0.11,0.25-0.21,0.35c-0.04,0.05-0.09,0.08-0.14,0.12c-0.11,0.08-0.24,0.13-0.37,0.16c-0.01,0-0.03,0.01-0.04,0.01
		c-0.1,0-0.2,0.01-0.29,0c-0.02,0-0.03,0-0.05-0.01c-0.3-0.07-0.51-0.25-0.64-0.53C9.29,10.1,9.23,9.96,9.17,9.83
		c0,0,0-0.01-0.01-0.01C9.16,9.8,9.15,9.8,9.13,9.81C9.08,9.83,9.03,9.84,8.97,9.85c-0.02,0-0.04,0.01-0.06,0.01
		c-0.06,0-0.11,0.01-0.17,0C8.6,9.85,8.46,9.81,8.33,9.72C8.23,9.65,8.14,9.55,8.07,9.44C8.05,9.41,8.03,9.36,8.02,9.32
		C8,9.28,8,9.28,7.95,9.28c-0.01,0-0.01,0-0.02,0c-0.01,0-0.02,0-0.02,0.01C7.91,9.31,7.9,9.32,7.89,9.34
		C7.82,9.51,7.7,9.64,7.55,9.74C7.47,9.8,7.38,9.83,7.29,9.85C7.22,9.87,7.14,9.86,7.07,9.86c-0.1,0-0.2-0.02-0.29-0.06
		c-0.02-0.01-0.02,0-0.03,0.01C6.73,9.87,6.71,9.91,6.68,9.96c-0.04,0.09-0.08,0.18-0.12,0.26c-0.06,0.12-0.13,0.23-0.23,0.32
		c-0.1,0.09-0.21,0.15-0.34,0.19c-0.1,0.03-0.19,0.03-0.29,0.03c-0.01,0-0.02,0-0.03,0c-0.14,0.01-0.26-0.04-0.38-0.09
		c-0.06-0.03-0.12-0.07-0.17-0.11c-0.09-0.08-0.17-0.17-0.23-0.27c-0.06-0.11-0.1-0.22-0.1-0.35c0-0.07,0-0.14,0-0.22
		c0-0.03,0-0.07,0.01-0.1C4.84,9.5,4.85,9.37,4.88,9.24c0.02-0.1,0.04-0.2,0.06-0.29c0.03-0.15,0.06-0.31,0.09-0.46
		C5.03,8.44,5.04,8.4,5.05,8.36c0-0.02,0-0.03-0.02-0.02c-0.15,0.02-0.3,0.03-0.44,0.05C4.46,8.4,4.35,8.41,4.23,8.43
		C4.09,8.45,3.95,8.47,3.81,8.49C3.69,8.5,3.56,8.52,3.44,8.54c-0.15,0.02-0.3,0.05-0.45,0.07C2.8,8.64,2.62,8.67,2.43,8.71
		C2.21,8.75,1.99,8.79,1.78,8.83C1.49,8.88,1.21,8.94,0.92,9c-0.23,0.05-0.47,0.11-0.7,0.16c-0.01,0-0.02,0-0.03,0.01
		c-0.01,0-0.01-0.01-0.01-0.01c0-0.01,0-0.01,0-0.02c0-0.02,0-0.04,0-0.06c0-2.94,0-5.88,0-8.82C0.18,0.24,0.18,0.21,0.18,0.17z"/>
	<path class="st7" d="M6.49,2.43c0,0,0.01,0,0.01,0c0,0,0,0.01,0,0.01c0,0,0,0,0,0c0,0-0.01,0-0.01,0C6.49,2.43,6.49,2.43,6.49,2.43
		z"/>
	<path class="st8" d="M8.55,2.35c0,0.04,0,0.07-0.01,0.11C8.53,2.5,8.51,2.51,8.48,2.51c-0.01,0-0.03,0-0.04,0
		c-0.02,0-0.02-0.01-0.02-0.02c0-0.09,0-0.19,0-0.28c0-0.02,0.01-0.02,0.02-0.02c0.08-0.01,0.11,0.02,0.12,0.1
		C8.55,2.31,8.55,2.33,8.55,2.35z"/>
	<path class="st9" d="M7.44,2.35c0-0.03,0.01-0.07,0.01-0.1C7.46,2.2,7.49,2.19,7.53,2.19c0.04,0,0.06,0.02,0.07,0.06
		C7.6,2.3,7.61,2.36,7.6,2.42c0,0.01,0,0.03-0.01,0.04C7.58,2.5,7.55,2.51,7.52,2.51c-0.03,0-0.06-0.02-0.07-0.05
		C7.44,2.43,7.44,2.39,7.44,2.35z"/>
	<path class="st10" d="M13.22,8.04c-0.02,0.01-0.04,0-0.06,0c-0.2-0.04-0.39-0.08-0.59-0.11c-0.1-0.02-0.21-0.03-0.31-0.05
		c-0.04-0.01-0.08-0.01-0.12-0.02c-0.02,0-0.03-0.01-0.03-0.03c0-0.01,0-0.03,0-0.04c0-2.09,0-4.18,0-6.28c0-0.01,0-0.02,0-0.03
		c0-0.06,0-0.05,0.06-0.06c0.14-0.02,0.28-0.04,0.42-0.07c0.28-0.05,0.57-0.11,0.85-0.16c0.24-0.05,0.47-0.11,0.71-0.16
		c0.33-0.08,0.66-0.17,0.99-0.26c0.02-0.01,0.05-0.01,0.07-0.02c0.01,0.02,0.01,0.04,0.01,0.05c0,0.09,0,0.19,0,0.28
		c0,0.94,0,1.89,0,2.83c0,0.09,0.01,0.06-0.06,0.11c-0.14,0.09-0.28,0.18-0.42,0.26c-0.01,0.01-0.02,0.01-0.03,0.02
		c0.01,0.02,0.03,0.02,0.05,0.03c0.14,0.08,0.29,0.17,0.43,0.25c0.01,0,0.01,0.01,0.02,0.01c0.01,0.01,0.02,0.02,0.02,0.03
		c0,0.01,0,0.03,0,0.04c0,1.26,0,2.52,0,3.77c0,0.02,0,0.04,0,0.06c-0.02,0.01-0.03,0-0.04,0c-0.27-0.07-0.54-0.14-0.82-0.22
		c-0.07-0.02-0.14-0.03-0.21-0.05c-0.03-0.01-0.03-0.01-0.03-0.04c0-0.01,0-0.03,0-0.04c0-0.9,0-1.79,0-2.69c0-0.02,0-0.04,0-0.06
		c0-0.01,0.01-0.02,0.02-0.02c0.01,0,0.03,0,0.04,0c0.08,0,0.17,0.01,0.25,0.01c0-0.01-0.01-0.02-0.02-0.02
		c-0.13-0.08-0.26-0.15-0.38-0.23c-0.25-0.15-0.51-0.29-0.76-0.43c0,0-0.01,0-0.01-0.01c-0.04-0.02-0.04-0.02-0.04,0.03
		c0,0.38,0,0.75,0,1.13c0,0.7,0,1.39,0,2.09C13.22,8,13.23,8.02,13.22,8.04z"/>
	<path class="st10" d="M3.89,7.85C3.72,7.89,3.54,7.9,3.37,7.94C3.2,7.97,3.02,8.01,2.85,8.04C2.67,8.07,2.5,8.11,2.33,8.15
		C2.16,8.19,1.98,8.23,1.81,8.26C1.64,8.3,1.47,8.35,1.3,8.4C1.13,8.44,0.96,8.49,0.79,8.53c0-0.01-0.01-0.02-0.01-0.02
		c0-2.58,0-5.16,0-7.73c0-0.01,0-0.01,0.01-0.02c0,0,0.01,0,0.01,0c1.02,0.28,2.05,0.51,3.09,0.67c0.01,0.02,0.01,0.03,0.01,0.05
		c0,0.63,0,1.27,0,1.9c0,0.05,0,0.05-0.05,0.05c-0.1-0.01-0.2-0.01-0.29-0.02C3.44,3.4,3.33,3.39,3.23,3.38
		c-0.13-0.01-0.26-0.02-0.4-0.03c-0.01,0-0.02,0-0.03,0c-0.01,0-0.02-0.01-0.02-0.02c0-0.02,0-0.03,0-0.05c0-0.32,0-0.65,0-0.97
		c0-0.02,0-0.03,0-0.05c0-0.02-0.01-0.03-0.03-0.03C2.72,2.22,2.69,2.22,2.65,2.21C2.52,2.2,2.4,2.17,2.27,2.15
		C2.15,2.13,2.04,2.11,1.92,2.1c-0.01,0-0.02,0-0.03,0c-0.01,0-0.02,0-0.02,0.02c0,0.02,0,0.03,0,0.05c0,1.65,0,3.3,0,4.95
		c0,0.02,0,0.05,0,0.07c0.01,0.01,0.03,0.01,0.04,0C2.14,7.15,2.37,7.11,2.6,7.08c0.04-0.01,0.09-0.01,0.13-0.02
		C2.78,7.05,2.78,7.05,2.78,7c0-0.01,0-0.02,0-0.03c0-0.93,0-1.87,0-2.8c0-0.02,0-0.04,0-0.06c0-0.02,0.01-0.02,0.02-0.01
		c0.04,0.02,0.08,0.04,0.12,0.06c0.29,0.16,0.59,0.32,0.89,0.46c0.02,0.01,0.03,0.02,0.05,0.03c0.02,0.01,0.02,0.02,0.02,0.04
		c0,0.01,0,0.02,0,0.03c0,1.03,0,2.06,0,3.08C3.89,7.82,3.89,7.83,3.89,7.85z"/>
	<path class="st10" d="M9.23,9.55C9.15,9.6,9.07,9.65,8.98,9.67C8.89,9.69,8.79,9.7,8.7,9.68C8.6,9.66,8.52,9.63,8.44,9.58
		c-0.08-0.05-0.15-0.12-0.2-0.2C8.19,9.29,8.16,9.2,8.14,9.11c-0.01,0-0.02,0-0.03,0c-0.1,0-0.2,0-0.3,0c-0.04,0-0.04,0-0.05,0.04
		C7.76,9.19,7.74,9.23,7.73,9.28C7.67,9.41,7.58,9.51,7.46,9.59C7.3,9.69,7.12,9.72,6.94,9.67c-0.08-0.02-0.15-0.05-0.21-0.1
		C6.71,9.57,6.7,9.56,6.69,9.55C6.67,9.56,6.66,9.58,6.66,9.59C6.58,9.77,6.5,9.94,6.42,10.12c-0.04,0.09-0.09,0.17-0.16,0.25
		c-0.14,0.15-0.31,0.22-0.52,0.23c-0.18,0-0.34-0.05-0.48-0.15c-0.23-0.17-0.33-0.4-0.29-0.69c0.02-0.16,0.06-0.31,0.09-0.47
		c0.07-0.35,0.13-0.7,0.2-1.04c0.01-0.03,0.01-0.07,0.01-0.1C5.28,7.85,5.4,7.62,5.62,7.44c0.01-0.01,0.02-0.01,0.03-0.02
		c0.02-0.01,0.02-0.03,0.03-0.05C5.68,7.3,5.69,7.23,5.7,7.16c0-0.02,0-0.05,0.01-0.07c0.02-0.1,0.1-0.16,0.2-0.17c0,0,0,0,0.01,0
		c0.21,0,0.42,0,0.63,0c0.11,0,0.2,0.08,0.21,0.19c0.01,0.07,0.01,0.14,0.02,0.22c0,0.03,0,0.03,0.04,0.03c0.01,0,0.03,0,0.04,0
		c0.74,0,1.48,0,2.21,0c0.09,0,0.07,0.01,0.08-0.08c0.01-0.05,0.01-0.11,0.02-0.17c0.01-0.1,0.08-0.17,0.17-0.19
		c0.02,0,0.04-0.01,0.06-0.01c0.2,0,0.39,0,0.59,0c0.07,0,0.13,0.02,0.17,0.07c0.04,0.04,0.05,0.09,0.06,0.14
		c0.01,0.08,0.02,0.15,0.02,0.23c0,0.04,0.02,0.06,0.04,0.08c0.11,0.08,0.19,0.18,0.25,0.29c0.07,0.12,0.11,0.25,0.12,0.38
		c0.01,0.09,0.02,0.17,0.04,0.26c0.05,0.28,0.11,0.57,0.16,0.85c0.03,0.15,0.06,0.31,0.09,0.46c0.02,0.12,0.03,0.24-0.01,0.36
		c-0.04,0.14-0.11,0.25-0.21,0.35c-0.12,0.11-0.25,0.17-0.41,0.2c-0.37,0.06-0.64-0.13-0.78-0.38C9.48,10.1,9.44,10,9.4,9.9
		C9.35,9.79,9.3,9.69,9.26,9.59C9.25,9.58,9.25,9.56,9.23,9.55z"/>
	<path class="st10" d="M9.7,3.62c0.13,0,0.26-0.01,0.39-0.01c0.09,0,0.18-0.01,0.27-0.01c0.15,0,0.3-0.01,0.45-0.01
		c0.16-0.01,0.33-0.01,0.49-0.02c0.12-0.01,0.25-0.01,0.37-0.02c0.01,0,0.01,0,0.02,0c0.03,0,0.04,0,0.04,0.04c0,0.01,0,0.03,0,0.04
		c0,1.36,0,2.72,0,4.09c0,0.03,0,0.05,0,0.08c-0.05-0.01-0.11-0.01-0.16-0.02c-0.13-0.02-0.27-0.03-0.4-0.05
		C11.11,7.72,11.05,7.71,11,7.7c-0.02,0-0.02-0.01-0.02-0.03c0-0.01,0-0.03,0-0.04c0-0.49,0-0.99,0-1.48c0-0.01,0-0.02,0-0.03
		c0-0.03,0-0.04,0.04-0.04c0.03,0,0.06,0,0.08,0.01c0.02,0,0.05,0,0.07,0c0-0.01,0-0.02-0.01-0.02c-0.26-0.14-0.53-0.28-0.8-0.4
		c-0.02,0.01-0.01,0.03-0.01,0.04c0,0.14,0,0.29,0,0.43c0,0.25,0,0.49,0,0.74c0,0.02,0,0.04,0,0.06c-0.01,0.01-0.01,0.01-0.02,0
		c-0.05-0.08-0.12-0.13-0.2-0.17c-0.02-0.03-0.02-0.06-0.02-0.09c0-0.33,0-0.66,0-0.98c0-0.2,0.15-0.32,0.35-0.24
		c0.19,0.08,0.37,0.17,0.55,0.27c0.1,0.05,0.19,0.1,0.29,0.15c0.1,0.05,0.14,0.14,0.13,0.25c-0.01,0.09-0.06,0.16-0.15,0.19
		c-0.05,0.01-0.06,0.04-0.06,0.09c0,0.34,0,0.68,0,1.02c0,0.05,0.02,0.07,0.07,0.08c0.05,0.01,0.1,0.01,0.15,0.02
		c0.04,0,0.05-0.01,0.05-0.05c0-0.02,0-0.03,0-0.05c0-0.63,0-1.27,0-1.9c0-0.02,0-0.03,0-0.05c0-0.04-0.02-0.06-0.06-0.06
		c-0.03,0-0.06,0-0.1,0c-0.08-0.01-0.14,0.01-0.2,0.08C11.08,5.54,11,5.55,10.92,5.53c-0.08-0.02-0.15-0.05-0.22-0.09
		c-0.06-0.03-0.11-0.04-0.18-0.04c-0.2,0-0.4,0-0.6,0c-0.08,0-0.09,0.01-0.09,0.09c0,0.36,0,0.73,0,1.09c0,0.02,0,0.05,0,0.07
		c0,0.09-0.01,0.09-0.1,0.09c-0.14,0-0.14,0-0.14-0.13c0-0.96,0-1.92,0-2.88C9.61,3.63,9.61,3.63,9.7,3.62z"/>
	<path class="st10" d="M5.35,7.46c-0.05,0.07-0.1,0.13-0.14,0.2C5.21,7.67,5.19,7.68,5.18,7.68C5.1,7.69,5.02,7.7,4.94,7.71
		C4.81,7.73,4.68,7.74,4.55,7.76C4.5,7.76,4.46,7.77,4.42,7.77C4.4,7.75,4.41,7.73,4.41,7.71c0-0.12,0-0.23,0-0.35
		c0-0.62,0-1.23,0-1.85c0-0.09-0.01-0.07,0.08-0.08c0.03,0,0.05,0,0.08,0c0-0.02-0.01-0.02-0.02-0.02c-0.1-0.04-0.2-0.09-0.3-0.13
		C4.23,5.27,4.22,5.25,4.22,5.23c0-0.21,0-0.41,0-0.62c0-0.01,0-0.01,0-0.02C4.25,4.58,4.26,4.6,4.28,4.6
		c0.04,0.02,0.07,0.03,0.11,0.05c0.02,0.01,0.03,0,0.03-0.02c0-0.05,0-0.1,0-0.15c0-0.23,0-0.47,0-0.7c0-0.06,0-0.11,0-0.17
		c0-0.01,0-0.03,0-0.04c0-0.01,0.01-0.02,0.02-0.02c0,0,0,0,0.01,0c0.1,0,0.2,0.01,0.3,0.01c0.07,0,0.14,0.01,0.21,0.01
		c0.13,0.01,0.27,0.01,0.4,0.02c0.11,0,0.21,0.01,0.32,0.01C5.84,3.6,6,3.61,6.17,3.61c0.11,0,0.21,0,0.32,0.01
		c0.01,0,0.03,0,0.04,0c0.01,0,0.01,0.01,0.02,0.02c0,0.01,0,0.03,0,0.04c0,0.37,0,0.74,0,1.11c0,0.06,0,0.06-0.05,0.06
		c-0.22,0-0.43,0-0.65,0c-0.01,0-0.02,0-0.03,0c-0.02,0-0.03,0-0.03-0.03c0-0.01,0-0.03,0-0.04c0-0.17,0-0.34,0-0.51
		c0-0.02,0-0.03,0-0.05c0-0.02,0-0.03-0.02-0.03c0,0-0.01,0-0.01,0c-0.18,0-0.37-0.01-0.55-0.01c-0.01,0-0.01,0-0.02,0
		c-0.01,0-0.02,0.01-0.02,0.02c0,0.01,0,0.03,0,0.04c0,0.24,0,0.49,0,0.73c0,0,0,0.01,0,0.01C5.16,5,5.17,5.02,5.2,5.03
		c0.14,0.06,0.28,0.12,0.43,0.19C5.71,5.26,5.81,5.3,5.9,5.34c0.02,0.01,0.03,0.02,0.03,0.04c0,0.2,0,0.39,0,0.59
		c0,0,0,0.01-0.01,0.02C5.86,5.96,5.8,5.93,5.73,5.91C5.67,5.88,5.61,5.86,5.54,5.83C5.48,5.8,5.42,5.78,5.36,5.75
		C5.29,5.73,5.23,5.7,5.17,5.68C5.16,5.69,5.16,5.71,5.16,5.72c0,0.44,0,0.87,0,1.31c0,0.01,0,0.02,0,0.03
		c0,0.02,0.01,0.03,0.03,0.03c0.06,0,0.11-0.01,0.17-0.01c0.05,0,0.1-0.01,0.15-0.01c0.02,0,0.02,0,0.02,0.02c0,0.01,0,0.03,0,0.04
		C5.52,7.17,5.51,7.22,5.51,7.28C5.48,7.3,5.45,7.29,5.42,7.3C5.35,7.31,5.27,7.31,5.2,7.32c-0.14,0.01-0.24-0.07-0.27-0.2
		c-0.01-0.03-0.01-0.07-0.01-0.1c0-0.42,0-0.84,0-1.27c0-0.04,0-0.08,0.01-0.11C4.97,5.48,5.1,5.4,5.25,5.45
		C5.38,5.5,5.49,5.55,5.61,5.6c0.02,0.01,0.03,0.01,0.05,0.02c0.01,0,0.02,0,0.03-0.02C5.7,5.56,5.68,5.51,5.64,5.49
		C5.54,5.44,5.43,5.39,5.31,5.4c-0.13,0.01-0.26,0-0.4,0c-0.04,0-0.07,0.01-0.08,0.06C4.82,5.55,4.77,5.62,4.69,5.65
		C4.65,5.66,4.64,5.69,4.64,5.72c0,0.01,0,0.03,0,0.04c0,0.55,0,1.1,0,1.64c0,0.01,0,0.02,0,0.03c0,0.07,0.01,0.08,0.08,0.07
		C4.91,7.47,5.1,7.45,5.29,7.43C5.31,7.43,5.34,7.42,5.35,7.46z"/>
	<path class="st10" d="M7.22,7.19c-0.07,0.01-0.13,0-0.2,0C7.01,7.19,7,7.18,7,7.16c0-0.01,0-0.03,0-0.04c0-0.75,0-1.5,0-2.25
		c0-0.02,0-0.04,0-0.06c0.45-0.2,0.9-0.4,1.35-0.59C8.34,4.2,8.33,4.2,8.31,4.2c-0.27,0-0.53,0-0.8,0c-0.15,0-0.29,0-0.44,0
		c-0.01,0-0.03,0-0.04,0C7.01,4.2,7,4.19,7,4.17c0,0,0-0.01,0-0.01c0-0.16,0-0.33,0-0.49c0-0.01,0-0.02,0-0.03
		c0,0,0.01-0.01,0.01-0.01c0.01,0,0.02,0,0.03,0c0.67,0.01,1.35,0,2.02,0c0,0,0.01,0,0.01,0c0.06,0,0.06,0,0.06,0.06
		c0,0.26,0,0.52,0,0.79c0,0.01,0,0.03,0,0.04C9.12,4.52,9.09,4.53,9.07,4.54C8.65,4.72,8.23,4.9,7.81,5.09
		C7.8,5.09,7.79,5.1,7.78,5.1C7.76,5.11,7.75,5.12,7.76,5.14c0,0.01,0,0.03,0,0.04c0,0.57,0,1.14,0,1.71c0,0.08-0.01,0.07,0.07,0.07
		c0.17,0,0.33,0,0.5,0c0.01,0,0.03,0,0.04,0c0.01,0,0.02-0.01,0.02-0.02c0-0.02,0-0.03,0-0.05c0-0.21,0-0.42,0-0.63
		c0-0.02,0-0.03,0-0.05c0-0.02,0.01-0.02,0.03-0.02c0.01,0,0.01,0.01,0.02,0.01c0.22,0.1,0.45,0.19,0.66,0.3c0,0,0.01,0,0.01,0.01
		c0.03,0.01,0.04,0.03,0.04,0.06c0,0.01,0,0.02,0,0.03c0,0.06,0,0.12,0,0.19c0,0.03-0.01,0.04-0.03,0.06C9.05,6.91,9.01,6.98,9,7.06
		c-0.01,0.03-0.01,0.07-0.01,0.1c0,0.03,0,0.03-0.03,0.03c-0.01,0-0.03,0-0.04,0C8.89,7.16,8.89,7.13,8.89,7.1c0-0.12,0-0.23,0-0.35
		c0-0.05-0.02-0.08-0.06-0.1C8.78,6.62,8.72,6.6,8.68,6.58C8.64,6.56,8.62,6.57,8.62,6.61c0,0.08,0,0.17,0,0.25
		c0,0.03,0,0.06,0,0.08C8.61,7.09,8.55,7.16,8.41,7.19c-0.05,0-0.09,0-0.14,0C8.18,7.17,8.09,7.18,8,7.18c-0.1,0-0.2,0-0.3,0
		C7.61,7.17,7.57,7.12,7.54,7.05C7.52,7,7.52,6.95,7.52,6.9c0-0.46,0-0.91,0-1.37c0-0.01,0-0.02,0-0.03c0-0.1,0-0.1-0.1-0.1
		c-0.04,0-0.09,0-0.13,0c-0.04,0-0.05,0.02-0.05,0.06c0,0.02,0,0.05,0,0.07c0,0.52,0,1.03,0,1.55C7.24,7.11,7.25,7.15,7.22,7.19z"/>
	<path class="st11" d="M9.7,3.62C9.68,3.63,9.66,3.63,9.64,3.63c-0.02,0-0.03,0.01-0.03,0.03c0,0.02,0,0.03,0,0.05
		c0,0.98,0,1.97,0,2.95c0,0.02,0,0.04,0,0.06c0,0.02,0.01,0.02,0.02,0.02c0.05,0,0.1,0,0.15,0c0.01,0,0.02-0.01,0.02-0.02
		c0-0.02,0-0.04,0-0.06c0-0.4,0-0.8,0-1.2c0-0.08,0-0.08,0.08-0.08c0.22,0,0.45,0,0.67,0c0.04,0,0.07,0.01,0.1,0.02
		c0.04,0.02,0.08,0.04,0.13,0.06c0.04,0.02,0.09,0.04,0.13,0.05c0.08,0.02,0.18-0.01,0.23-0.09c0-0.01,0.01-0.01,0.01-0.02
		c0.01-0.02,0.02-0.02,0.04-0.02c0.02,0,0.04,0,0.06,0c0.07,0,0.14,0,0.2,0c0.03,0,0.04,0.01,0.04,0.04c0,0.02,0,0.03,0,0.05
		c0,0.66,0,1.33,0,1.99c0,0.01,0,0.03,0,0.04c0,0.04,0,0.05-0.06,0.04c-0.03-0.01-0.05-0.01-0.08-0.01c-0.03,0-0.06-0.01-0.09-0.01
		c-0.09-0.02-0.08,0-0.08-0.09c0-0.35,0-0.7,0-1.04c0-0.08-0.01-0.07,0.07-0.09c0.11-0.03,0.16-0.13,0.15-0.24
		c-0.01-0.07-0.04-0.12-0.1-0.15c-0.03-0.02-0.06-0.04-0.1-0.05c-0.21-0.11-0.43-0.22-0.64-0.33c-0.06-0.03-0.11-0.05-0.17-0.07
		c-0.1-0.03-0.18,0.01-0.24,0.09c-0.02,0.02-0.02,0.06-0.02,0.09c0,0.01,0,0.02,0,0.03c0,0.37,0,0.73,0,1.1
		c-0.11-0.02-0.21-0.01-0.32-0.01c-0.07,0-0.13,0-0.2,0c-0.02,0-0.02-0.01-0.02-0.02c0-0.02,0-0.03,0-0.05c0-1,0-1.99,0-2.99
		c0-0.09-0.01-0.07,0.08-0.08C9.69,3.61,9.69,3.62,9.7,3.62z"/>
	<path class="st11" d="M5.35,7.46C5.35,7.45,5.34,7.44,5.33,7.45C5.3,7.46,5.27,7.45,5.24,7.46C5.18,7.46,5.12,7.47,5.06,7.48
		c-0.04,0-0.08,0.01-0.12,0.01C4.9,7.5,4.86,7.5,4.82,7.5c-0.05,0-0.1,0.01-0.15,0.02c-0.03,0.01-0.04,0-0.05-0.03
		c0-0.01,0-0.03,0-0.04c0-0.57,0-1.15,0-1.72c0-0.01,0-0.02,0-0.03c0-0.05,0-0.05,0.05-0.06c0.06-0.02,0.1-0.05,0.12-0.1
		c0.02-0.04,0.03-0.08,0.02-0.13c0-0.01,0-0.02,0.02-0.02c0.02,0,0.03,0,0.05,0c0.16,0,0.32,0,0.49,0c0.05,0,0.1,0.01,0.14,0.03
		c0.05,0.03,0.11,0.05,0.16,0.07C5.7,5.49,5.71,5.51,5.71,5.54c0,0.04,0,0.08,0,0.12c-0.03,0-0.06-0.01-0.08-0.02
		C5.57,5.6,5.5,5.58,5.44,5.55C5.39,5.53,5.35,5.51,5.3,5.49C5.26,5.47,5.22,5.46,5.18,5.45c0,0-0.01,0-0.01,0
		C5.12,5.46,5.07,5.47,5.03,5.5C4.99,5.53,4.96,5.57,4.95,5.62C4.95,5.67,4.94,5.71,4.94,5.75c0,0.43,0,0.85,0,1.28
		c0,0.03,0.01,0.07,0.01,0.1C4.96,7.19,5,7.23,5.04,7.26c0,0,0.01,0.01,0.02,0.01c0.06,0.02,0.11,0.04,0.17,0.02
		c0.01,0,0.03,0,0.04,0c0.05,0,0.09,0,0.14-0.01c0.03-0.01,0.06,0,0.1,0c0,0.02,0,0.04-0.02,0.05C5.44,7.37,5.4,7.41,5.35,7.46z"/>
	<path class="st11" d="M7.22,7.19c0-0.58,0-1.16,0-1.74c0-0.07,0-0.07,0.07-0.07c0.06,0,0.13,0,0.19,0c0.01,0,0.03,0,0.04,0
		c0.01,0,0.02,0.01,0.02,0.02c0,0.02,0,0.04,0,0.06c0,0.49,0,0.97,0,1.46c0,0.03,0,0.07,0.01,0.1C7.57,7.1,7.61,7.14,7.69,7.16
		c0.03,0.01,0.07,0.01,0.1,0.01c0.14,0,0.28,0,0.42,0c0.02,0,0.04-0.01,0.06,0.01c-0.01,0-0.03,0-0.04,0c-0.32,0-0.64,0-0.96,0
		C7.25,7.19,7.24,7.19,7.22,7.19z"/>
	<path class="st10" d="M5.81,6.76c-0.01,0-0.02,0-0.02-0.01c0-0.01,0-0.02,0-0.03c0-0.15,0-0.3,0-0.45c0-0.01,0-0.02,0-0.03
		c0.02-0.01,0.03,0,0.04,0.01c0.23,0.09,0.45,0.18,0.68,0.27c0,0,0.01,0,0.01,0.01c0.04,0.06,0.01,0.13,0.01,0.2
		c0,0.02-0.02,0.02-0.04,0.02c-0.04,0-0.09,0-0.13,0c-0.01,0-0.03,0-0.04-0.01C6.26,6.65,6.15,6.65,6.06,6.6
		C6.05,6.6,6.04,6.59,6.02,6.59c-0.01,0.03,0,0.06,0,0.09c0,0.05-0.02,0.08-0.07,0.07c-0.02,0-0.05,0-0.07,0
		C5.86,6.76,5.83,6.75,5.81,6.76z"/>
	<path class="st11" d="M8.41,7.19c0.01-0.01,0.02-0.01,0.03-0.01c0.07-0.01,0.11-0.06,0.14-0.12C8.6,7.02,8.6,6.98,8.6,6.94
		c0-0.11,0-0.22,0-0.33c0-0.02,0-0.03,0-0.05c0-0.01,0.01-0.02,0.03-0.02c0.01,0,0.02,0.01,0.02,0.01c0.08,0.03,0.15,0.07,0.23,0.1
		C8.9,6.66,8.91,6.67,8.91,6.69c0,0.04,0,0.08,0,0.12c0,0.12,0,0.25,0,0.37c-0.01,0-0.02,0-0.03,0c-0.15,0-0.29,0-0.44,0
		C8.43,7.19,8.42,7.19,8.41,7.19z"/>
	<path class="st12" d="M5.88,6.75C5.9,6.73,5.92,6.74,5.94,6.74c0.01,0,0.03,0,0.04,0C6,6.74,6,6.73,6,6.71c0-0.03,0-0.06,0-0.09
		c0-0.02,0-0.03,0-0.05C6.04,6.57,6.07,6.59,6.09,6.6c0.07,0.03,0.13,0.05,0.2,0.08c0.02,0.01,0.03,0.01,0.03,0.03
		c0,0.03,0.02,0.03,0.04,0.03c0.04,0,0.09,0,0.13,0c0.01,0,0.03-0.01,0.03-0.02c0-0.05,0-0.11,0-0.16c0-0.01-0.01-0.02-0.01-0.02
		c0.01,0,0.02,0,0.02,0.02c0,0.01,0,0.02,0,0.02c0,0.06,0,0.12,0,0.18C6.53,6.76,6.52,6.76,6.51,6.76c-0.2,0-0.4,0-0.59,0
		C5.9,6.76,5.89,6.76,5.88,6.75z"/>
	<path class="st13" d="M5.88,6.75c0.01,0,0.02,0,0.03,0c0.2,0,0.4,0,0.59,0c0.01,0,0.03,0,0.04,0c0,0.01-0.01,0.01-0.02,0.01
		c-0.01,0-0.03,0-0.04,0c-0.22,0-0.44,0-0.66,0c-0.01,0-0.01,0-0.02,0C5.83,6.74,5.85,6.75,5.88,6.75z"/>
	<path class="st11" d="M15.01,6.82c0,0.45,0,0.9,0,1.35c0,0.02,0,0.04,0,0.06c0,0.01-0.01,0.02-0.03,0.02
		c-0.07-0.02-0.14-0.04-0.21-0.05c-0.07-0.02-0.15-0.04-0.22-0.06c-0.05-0.01-0.1-0.03-0.15-0.04c-0.03-0.01-0.04-0.02-0.04-0.05
		c0-0.01,0-0.03,0-0.04c0-0.76,0-1.53,0-2.29c0-0.02,0-0.03,0-0.05c0-0.03,0.01-0.03,0.03-0.02c0.07,0.01,0.14,0,0.21-0.04
		c0.03-0.02,0.06-0.06,0.07-0.1c0.01-0.03,0.02-0.06,0.02-0.09c0-0.01,0.01-0.02,0.02-0.02c0,0,0,0,0.01,0c0.09,0,0.18,0,0.27,0
		c0.02,0,0.03,0.01,0.03,0.03c0,0.02,0,0.04,0,0.06C15.01,5.92,15.01,6.37,15.01,6.82z"/>
	<path class="st11" d="M13,6.58c0,0.38,0,0.75,0,1.13c0,0.09,0,0.08-0.08,0.06c-0.08-0.02-0.15-0.03-0.23-0.05
		c-0.09-0.01-0.19-0.04-0.28-0.05c0,0-0.01,0-0.01,0c-0.05-0.01-0.06-0.02-0.06-0.07c0-0.3,0-0.61,0-0.91c0-0.41,0-0.83,0-1.24
		c0-0.08,0-0.08,0.08-0.08c0.17,0,0.34,0,0.51,0c0.02,0,0.03,0,0.05,0c0.02,0,0.03,0.01,0.03,0.03c0,0.02,0,0.04,0,0.06
		C13,5.84,13,6.21,13,6.58z"/>
	<path class="st6" d="M13.22,2.24c0.05-0.02,0.1-0.02,0.14-0.03c0.24-0.04,0.48-0.08,0.73-0.11c0.01,0,0.01,0,0.02,0
		c0.02,0,0.02,0,0.02,0.02c0,0.02,0,0.03,0,0.05c0,0.6,0,1.21,0,1.81c0,0.02,0,0.05,0,0.07c-0.02,0-0.03-0.01-0.05-0.02
		c-0.26-0.13-0.52-0.26-0.78-0.39c-0.01-0.01-0.02-0.01-0.03-0.02c-0.03-0.01-0.04-0.03-0.04-0.06c0-0.43,0-0.87,0-1.3
		C13.22,2.26,13.22,2.25,13.22,2.24z"/>
	<path class="st11" d="M1,6.81c0-0.45,0-0.9,0-1.35c0-0.09-0.01-0.08,0.08-0.08c0.16,0,0.33,0,0.49,0c0.02,0,0.03,0,0.05,0
		c0.02,0,0.03,0.01,0.03,0.03c0,0.02,0,0.04,0,0.06c0,0.55,0,1.11,0,1.66c0,0.05,0,0.09,0.01,0.13C1.67,7.3,1.69,7.32,1.72,7.34
		C1.77,7.39,1.83,7.41,1.9,7.41C1.97,7.4,2.05,7.39,2.12,7.37c0.04-0.01,0.08-0.01,0.11-0.02c0.08-0.01,0.15-0.03,0.23-0.04
		C2.53,7.31,2.6,7.3,2.67,7.29c0.06-0.01,0.12-0.01,0.18-0.03c0.07-0.02,0.12-0.07,0.15-0.14C3.01,7.08,3.01,7.04,3.01,7
		c0-0.28,0-0.56,0-0.84c0-0.23,0-0.46,0-0.69c0-0.01,0-0.03,0-0.04c0-0.04,0-0.04,0.04-0.04c0.01,0,0.02,0,0.03,0
		c0.17,0,0.35,0,0.52,0c0.01,0,0.02,0,0.03,0c0.03,0,0.04,0.01,0.04,0.04c0,0.08,0,0.17,0,0.25c0,0.63,0,1.26,0,1.89
		c0,0.01,0,0.03,0,0.04c0,0.07,0,0.07-0.07,0.08C3.5,7.7,3.4,7.72,3.3,7.73C3.14,7.76,2.99,7.79,2.83,7.82
		C2.69,7.85,2.54,7.88,2.4,7.91c-0.15,0.04-0.3,0.07-0.45,0.1C1.83,8.04,1.71,8.07,1.59,8.1C1.44,8.13,1.3,8.17,1.15,8.21
		C1.11,8.22,1.07,8.23,1.03,8.24C1.01,8.25,1,8.24,1,8.23c0-0.02,0-0.04,0-0.06C1,7.72,1,7.27,1,6.81z"/>
	<path class="st6" d="M7.96,7.55c0.31,0,0.62,0,0.93,0c0.02,0,0.04,0,0.06,0c0.01,0,0.01,0.01,0.01,0.01
		C8.95,7.57,8.94,7.59,8.93,7.6C8.8,7.77,8.73,7.97,8.72,8.19c0,0.04,0.01,0.08,0.01,0.12c0,0.03,0,0.03-0.03,0.04
		C8.68,8.35,8.66,8.35,8.63,8.36c-0.12,0.03-0.22,0.1-0.31,0.18C8.26,8.61,8.2,8.69,8.17,8.79c-0.01,0.03-0.02,0.07-0.03,0.1
		c0,0.02-0.01,0.02-0.03,0.02c-0.1,0-0.21,0-0.31,0c-0.02,0-0.03-0.01-0.03-0.03C7.76,8.84,7.75,8.8,7.73,8.75
		C7.66,8.59,7.55,8.48,7.4,8.4C7.35,8.38,7.3,8.36,7.25,8.35c-0.01,0-0.03-0.01-0.04-0.01c-0.01,0-0.02-0.01-0.02-0.03
		c0-0.01,0-0.02,0-0.03C7.21,8.03,7.14,7.8,6.98,7.6C6.98,7.59,6.97,7.58,6.96,7.57c0,0-0.01-0.01-0.01-0.02
		c0-0.01,0.01-0.01,0.01-0.01c0.02,0,0.03,0,0.05,0C7.34,7.55,7.65,7.55,7.96,7.55z"/>
	<path class="st6" d="M5.7,10.4c-0.11,0-0.2-0.03-0.29-0.09c-0.2-0.12-0.29-0.33-0.26-0.56c0.02-0.13,0.05-0.27,0.07-0.4
		c0.04-0.22,0.08-0.44,0.13-0.67c0-0.01,0-0.01,0-0.02c0-0.01,0-0.01,0.01-0.01c0,0,0.01,0,0.01,0c0.01,0.01,0.01,0.02,0.02,0.03
		C5.47,8.82,5.57,8.92,5.69,9c0.09,0.06,0.18,0.1,0.28,0.13C6.1,9.17,6.24,9.18,6.38,9.16c0,0,0,0,0.01,0
		c0.05-0.01,0.05-0.01,0.06,0.04c0.01,0.03,0.02,0.05,0.03,0.08C6.48,9.3,6.49,9.33,6.51,9.35c0.03,0.03,0.02,0.06,0.01,0.1
		c-0.09,0.2-0.18,0.4-0.27,0.59c-0.03,0.07-0.07,0.13-0.12,0.19c-0.09,0.1-0.2,0.15-0.33,0.17C5.77,10.4,5.74,10.41,5.7,10.4z"/>
	<path class="st6" d="M10.56,8.66c0.03,0.13,0.05,0.27,0.08,0.4c0.04,0.22,0.08,0.44,0.12,0.66c0.01,0.07,0.02,0.13,0.01,0.2
		c-0.02,0.17-0.1,0.3-0.24,0.39c-0.1,0.07-0.22,0.1-0.34,0.1c-0.16,0-0.3-0.06-0.41-0.18c-0.04-0.05-0.08-0.11-0.11-0.17
		C9.58,9.85,9.49,9.65,9.4,9.44c0,0,0-0.01-0.01-0.01c-0.01-0.02-0.01-0.04,0-0.06c0.03-0.04,0.05-0.09,0.07-0.14
		c0.01-0.02,0.01-0.04,0.02-0.06c0.01-0.02,0.01-0.02,0.03-0.02c0.05,0.01,0.1,0.02,0.15,0.02c0.26,0,0.49-0.08,0.69-0.26
		c0.07-0.06,0.13-0.13,0.17-0.21C10.53,8.68,10.53,8.66,10.56,8.66z"/>
	<path class="st6" d="M6.23,8.98c-0.46,0-0.83-0.4-0.78-0.87c0.03-0.29,0.25-0.6,0.62-0.67C6.6,7.33,7.06,7.76,7,8.28
		C7,8.29,7,8.3,7,8.32c0,0.02-0.01,0.03-0.03,0.03c-0.05,0.01-0.1,0.02-0.15,0.05C6.63,8.48,6.5,8.63,6.44,8.84
		C6.44,8.86,6.43,8.88,6.43,8.91c-0.01,0.04,0,0.05-0.06,0.06C6.32,8.98,6.27,8.98,6.23,8.98z"/>
	<path class="st6" d="M9.68,8.98c-0.04,0-0.09,0-0.14-0.02C9.5,8.96,9.49,8.95,9.49,8.92C9.48,8.88,9.47,8.84,9.46,8.8
		C9.4,8.63,9.29,8.5,9.14,8.42c-0.05-0.03-0.1-0.05-0.15-0.06c-0.01,0-0.02-0.01-0.04-0.01c-0.02,0-0.03-0.02-0.03-0.04
		C8.9,8.18,8.91,8.06,8.95,7.94c0.1-0.27,0.29-0.45,0.58-0.51c0.38-0.08,0.75,0.13,0.89,0.48c0.17,0.42-0.06,0.89-0.5,1.03
		C9.84,8.97,9.77,8.98,9.68,8.98z"/>
	<path class="st1" d="M7.1,9.5c-0.27,0-0.49-0.21-0.49-0.49c0-0.28,0.22-0.5,0.49-0.5c0.27,0,0.49,0.22,0.49,0.49
		C7.59,9.29,7.37,9.5,7.1,9.5z"/>
	<path class="st1" d="M9.31,9.01c0,0.28-0.22,0.49-0.49,0.49c-0.27,0-0.49-0.21-0.49-0.49c0-0.28,0.22-0.5,0.5-0.49
		C9.09,8.52,9.31,8.74,9.31,9.01z"/>
	<path class="st1" d="M9.34,7.29c-0.01-0.05,0-0.1,0.01-0.16c0-0.01,0.01-0.02,0.03-0.02c0.01,0,0.03,0,0.04,0c0.18,0,0.36,0,0.54,0
		c0,0,0.01,0,0.01,0c0.05,0,0.06,0.01,0.06,0.05c0,0.04,0.01,0.08,0.01,0.11c0,0.01-0.01,0.02-0.02,0.02
		c-0.03-0.01-0.06-0.02-0.1-0.03C9.75,7.22,9.57,7.22,9.4,7.28C9.38,7.28,9.37,7.28,9.34,7.29C9.35,7.29,9.35,7.29,9.34,7.29z"/>
	<path class="st1" d="M5.88,7.29c0-0.05,0-0.1,0.01-0.15c0-0.02,0.02-0.03,0.04-0.03c0.01,0,0.03,0,0.04,0c0.17,0,0.35,0,0.52,0
		c0.07,0,0.07,0,0.08,0.07c0,0.03,0.01,0.06,0.01,0.09c0,0.02-0.01,0.03-0.03,0.02C6.52,7.28,6.49,7.27,6.46,7.26
		C6.28,7.21,6.1,7.22,5.93,7.28C5.91,7.28,5.9,7.28,5.88,7.29C5.88,7.29,5.88,7.29,5.88,7.29z"/>
	<path class="st6" d="M10.97,5.3c-0.06-0.03-0.13-0.06-0.19-0.09c-0.12-0.06-0.24-0.12-0.37-0.18C10.35,5,10.35,5,10.35,4.94
		c0-0.17,0-0.34,0-0.51c0-0.07,0-0.14,0-0.21c0-0.03,0-0.03,0.03-0.03c0.19,0,0.37-0.01,0.56-0.01c0.01,0,0.01,0,0.02,0
		c0.01,0,0.02,0.01,0.02,0.02c0,0.01,0,0.03,0,0.04c0,0.34,0,0.68,0,1.02C10.98,5.27,10.98,5.28,10.97,5.3z"/>
	<path class="st14" d="M7.6,8.27c-0.02,0-0.04,0-0.06,0c-0.01,0-0.02,0-0.04-0.01C7.48,8.25,7.47,8.23,7.47,8.21
		c0-0.02,0.01-0.04,0.04-0.05c0,0,0,0,0.01,0c0.06-0.01,0.12-0.01,0.18,0c0.03,0.01,0.04,0.03,0.04,0.06c0,0.03-0.02,0.05-0.05,0.06
		C7.65,8.27,7.62,8.27,7.6,8.27C7.6,8.27,7.6,8.27,7.6,8.27z"/>
	<path class="st15" d="M8.31,8.27c-0.02,0-0.05,0-0.07,0C8.2,8.27,8.18,8.23,8.19,8.19C8.2,8.17,8.22,8.15,8.24,8.15
		c0.05,0,0.1,0,0.15,0c0.04,0,0.06,0.03,0.06,0.06c0,0.03-0.03,0.06-0.06,0.06C8.36,8.28,8.34,8.27,8.31,8.27
		C8.31,8.27,8.31,8.27,8.31,8.27z"/>
	<path class="st16" d="M5.64,8.15c0-0.04,0-0.08,0-0.12c0-0.05,0.02-0.08,0.07-0.08c0.06,0,0.13,0,0.19,0
		c0.03,0,0.05,0.01,0.07,0.03C6,8.02,6.04,8.06,6.07,8.1c0.03,0.03,0.02,0.06,0,0.09C6.04,8.24,6,8.28,5.97,8.32
		C5.96,8.34,5.93,8.35,5.91,8.35c-0.07,0-0.13,0-0.2,0c-0.05,0-0.07-0.02-0.07-0.08c0,0,0-0.01,0-0.01
		C5.64,8.22,5.64,8.18,5.64,8.15C5.64,8.15,5.64,8.15,5.64,8.15z"/>
	<path class="st16" d="M6.8,8.15c0,0.04,0,0.09,0,0.13c0,0.04-0.02,0.07-0.07,0.07c-0.07,0-0.14,0-0.2,0
		c-0.02,0-0.05-0.01-0.06-0.03C6.43,8.28,6.4,8.23,6.37,8.19c-0.02-0.03-0.02-0.06,0-0.08c0.03-0.04,0.07-0.08,0.1-0.13
		c0.02-0.02,0.04-0.03,0.07-0.03c0.06,0,0.12,0,0.19,0c0.01,0,0.01,0,0.02,0C6.78,7.95,6.8,7.97,6.8,8.01
		C6.8,8.06,6.8,8.11,6.8,8.15C6.8,8.15,6.8,8.15,6.8,8.15z"/>
	<path class="st16" d="M6.22,8.73c-0.04,0-0.08,0-0.12,0c-0.06,0-0.08-0.02-0.08-0.08c0-0.06,0-0.12,0-0.18
		c0-0.04,0.01-0.06,0.04-0.08C6.09,8.36,6.13,8.33,6.17,8.3c0.04-0.03,0.06-0.03,0.1,0c0.04,0.03,0.08,0.06,0.12,0.09
		c0.03,0.02,0.04,0.04,0.04,0.08c0,0.06,0,0.12,0,0.19c0,0.06-0.02,0.08-0.08,0.08C6.3,8.73,6.26,8.73,6.22,8.73z"/>
	<path class="st16" d="M6.22,7.57c0.04,0,0.09,0,0.13,0c0.05,0,0.07,0.02,0.07,0.07c0,0.07,0,0.14,0,0.2c0,0.03-0.01,0.05-0.03,0.07
		C6.34,7.94,6.31,7.97,6.26,8C6.23,8.02,6.21,8.02,6.17,8C6.13,7.97,6.09,7.93,6.05,7.9C6.03,7.89,6.02,7.86,6.02,7.83
		c0-0.06,0-0.13,0-0.19c0-0.05,0.02-0.07,0.07-0.07C6.13,7.57,6.17,7.57,6.22,7.57z"/>
	<path class="st16" d="M9.82,8.2c0-0.13,0.11-0.24,0.24-0.24c0.14,0,0.24,0.11,0.24,0.23c0,0.12-0.09,0.24-0.24,0.24
		C9.91,8.43,9.82,8.32,9.82,8.2z"/>
	<path class="st16" d="M9.56,8.2c0,0.1-0.08,0.23-0.24,0.23c-0.14,0-0.23-0.11-0.24-0.24c0-0.13,0.11-0.24,0.24-0.24
		C9.48,7.97,9.57,8.09,9.56,8.2z"/>
	<path class="st16" d="M9.69,8.32c0.13,0,0.24,0.1,0.24,0.23c0,0.13-0.11,0.24-0.24,0.24c-0.13,0-0.24-0.11-0.24-0.24
		C9.45,8.43,9.56,8.33,9.69,8.32z"/>
	<path class="st16" d="M9.69,8.07c-0.13,0-0.24-0.11-0.23-0.24c0-0.13,0.1-0.24,0.24-0.23c0.15,0,0.24,0.12,0.24,0.24
		C9.92,7.97,9.82,8.07,9.69,8.07z"/>
	<path class="st10" d="M7.1,8.61c0.22,0,0.4,0.17,0.4,0.4c0,0.23-0.18,0.4-0.4,0.4c-0.21,0-0.4-0.16-0.4-0.4
		C6.7,8.79,6.88,8.62,7.1,8.61z"/>
	<path class="st10" d="M8.81,8.61c0.22,0,0.4,0.18,0.4,0.4c0,0.22-0.18,0.4-0.39,0.4c-0.21,0-0.4-0.16-0.4-0.4
		C8.42,8.78,8.6,8.62,8.81,8.61z"/>
	<path class="st17" d="M5.76,8.15c0-0.08-0.01-0.07,0.07-0.08c0.06,0,0.08,0.04,0.1,0.07c0,0,0,0.01,0,0.02
		C5.93,8.17,5.92,8.18,5.91,8.19C5.9,8.22,5.88,8.23,5.85,8.23c0,0,0,0-0.01,0C5.75,8.22,5.76,8.24,5.76,8.15z"/>
	<path class="st18" d="M6.49,8.15c0.06-0.08,0.07-0.09,0.16-0.08c0.01,0,0.02,0.01,0.02,0.02c0,0.04,0,0.08,0,0.11
		c0,0.01-0.01,0.02-0.02,0.02c-0.01,0-0.01,0-0.02,0C6.54,8.22,6.56,8.24,6.49,8.15z"/>
	<path class="st17" d="M6.21,8.61c-0.08,0-0.07,0.01-0.07-0.07c0-0.01,0-0.02,0-0.03c0-0.01,0-0.02,0.01-0.03c0,0,0,0,0,0
		C6.18,8.45,6.2,8.43,6.22,8.43c0.03,0,0.05,0.03,0.07,0.05c0.01,0,0.01,0.01,0.01,0.02c0,0.01,0,0.02,0,0.03
		C6.29,8.62,6.31,8.61,6.21,8.61z"/>
	<path class="st19" d="M6.22,7.69c0.08,0,0.07-0.01,0.08,0.07c0,0.06-0.03,0.08-0.07,0.1c-0.01,0.01-0.02,0-0.02,0
		C6.14,7.83,6.14,7.82,6.14,7.75c0-0.01,0-0.02,0-0.03c0-0.02,0.01-0.03,0.03-0.03c0,0,0.01,0,0.01,0C6.2,7.69,6.21,7.69,6.22,7.69z
		"/>
	<path class="st20" d="M10.05,8.31C10,8.31,9.94,8.26,9.94,8.2c0-0.06,0.05-0.12,0.11-0.12c0.06,0,0.11,0.05,0.11,0.11
		C10.17,8.26,10.12,8.31,10.05,8.31z"/>
	<path class="st20" d="M9.33,8.09c0.06,0,0.11,0.06,0.11,0.12c0,0.06-0.05,0.11-0.11,0.11c-0.06,0-0.11-0.06-0.11-0.12
		C9.22,8.13,9.27,8.08,9.33,8.09z"/>
	<path class="st21" d="M9.8,8.56c0,0.06-0.05,0.11-0.11,0.11c-0.06,0-0.12-0.05-0.12-0.11c0-0.06,0.05-0.11,0.11-0.11
		C9.75,8.45,9.8,8.5,9.8,8.56z"/>
	<path class="st21" d="M9.8,7.83c0,0.06-0.05,0.11-0.11,0.11c-0.06,0-0.11-0.04-0.12-0.11c0-0.07,0.05-0.11,0.11-0.11
		C9.75,7.72,9.8,7.77,9.8,7.83z"/>
	<path class="st6" d="M7.37,9.01c0,0.15-0.13,0.28-0.28,0.27c-0.15,0-0.27-0.13-0.27-0.28c0-0.15,0.11-0.27,0.27-0.27
		C7.27,8.74,7.38,8.88,7.37,9.01z"/>
	<path class="st6" d="M8.82,9.29c-0.15,0-0.28-0.12-0.28-0.27c0-0.13,0.1-0.27,0.27-0.27c0.17,0,0.28,0.14,0.28,0.27
		C9.09,9.16,8.97,9.28,8.82,9.29z"/>
</g>
</svg>
