<svg width="66" height="20" viewBox="0 0 66 20" fill="none" xmlns="http://www.w3.org/2000/svg">
<g clip-path="url(#clip0_54:119)">
<path d="M65.4204 15.3794C64.1706 15.3794 62.9207 15.3794 61.6011 15.3794C61.6011 16.6633 61.6011 17.9013 61.6011 19.1681C60.307 19.1681 59.0826 19.1681 57.7885 19.1681C57.7885 17.9285 57.7885 16.6905 57.7885 15.3794C57.4926 15.3794 57.2665 15.3794 57.0403 15.3794C53.2363 15.3794 49.4322 15.3896 45.6282 15.3743C43.9991 15.3675 42.6148 14.3659 42.0639 12.8592C41.5214 11.3798 41.9465 9.71669 43.1403 8.69469C43.3801 8.48892 43.6505 8.31377 43.9191 8.14372C47.7776 5.70859 51.6429 3.28195 55.4962 0.840019C56.8243 -0.00173436 58.1915 -0.181989 59.5911 0.584942C61.011 1.36208 61.613 2.62216 61.6011 4.22234C61.5841 6.63877 61.596 9.05519 61.596 11.5634C62.8918 11.5634 64.1569 11.5634 65.4221 11.5634C65.4204 12.8337 65.4204 14.1057 65.4204 15.3794ZM57.7392 3.94515C53.7311 6.47212 49.791 8.95486 45.7336 11.5141C49.8556 11.5141 53.7974 11.5141 57.7392 11.5141C57.7392 8.99568 57.7392 6.52483 57.7392 3.94515Z" fill="#FFFFFE"/>
<path d="M0.120758 0.103697C4.62201 0.103697 9.12327 0.0866921 13.6245 0.1122C16.5732 0.127504 18.9403 2.28205 19.2872 5.19163C19.68 8.49913 17.114 11.4852 13.7674 11.5464C11.2421 11.5924 8.71344 11.5583 6.18648 11.56C4.69173 11.5617 3.95031 12.2947 3.94861 13.7741C3.94691 15.5511 3.94861 17.3299 3.94861 19.197C2.65112 19.197 1.38764 19.197 0.122459 19.197C0.122459 17.0323 0.122459 14.8692 0.122459 12.7045C0.154768 12.628 0.197281 12.5531 0.215987 12.4732C1.01353 9.33238 3.06434 7.7407 6.31742 7.7407C8.69474 7.7407 11.0738 7.7441 13.4511 7.739C14.4204 7.7373 15.1499 7.23394 15.4118 6.416C15.825 5.12701 14.8829 3.92815 13.4324 3.92475C8.99573 3.91795 4.55739 3.92305 0.120758 3.92305C0.120758 2.64936 0.120758 1.37738 0.120758 0.103697Z" fill="#FFFFFE"/>
<path d="M42.3529 0.103775C42.3529 1.41317 42.3529 2.62053 42.3529 3.92312C42.1131 3.92312 41.8886 3.92312 41.6642 3.92312C39.1134 3.92312 36.5643 3.92142 34.0136 3.92312C32.5664 3.92483 31.8216 4.66285 31.8182 6.11849C31.8114 8.42948 31.8216 10.7422 31.8148 13.0549C31.8029 16.8198 29.4052 19.1954 25.6249 19.1971C22.9279 19.1988 20.2326 19.1971 17.4863 19.1971C17.4863 17.9251 17.4863 16.6889 17.4863 15.3778C17.7176 15.3778 17.9437 15.3778 18.1716 15.3778C20.7003 15.3778 23.2289 15.3795 25.7576 15.3778C27.2421 15.3761 27.9819 14.6432 27.987 13.1484C27.9938 10.8374 27.9819 8.52471 27.9904 6.21201C28.004 2.49129 30.4153 0.103775 34.1496 0.102074C36.6358 0.100374 39.1219 0.102074 41.608 0.102074C41.8376 0.103775 42.0672 0.103775 42.3529 0.103775Z" fill="#FFFFFE"/>
</g>
<defs>
<clipPath id="clip0_54:119">
<rect width="65.5428" height="19.26" fill="white"/>
</clipPath>
</defs>
</svg>
