<svg width="36" height="37" viewBox="0 0 36 37" fill="none" xmlns="http://www.w3.org/2000/svg">
<path d="M0.0982018 17.3754C0.0982018 18.1194 0.0982018 18.8626 0.0982018 19.6066C0.118374 19.711 0.14381 19.8135 0.157845 19.9188C0.25433 20.6412 0.313095 21.3718 0.448174 22.0861C1.84983 29.5003 7.67221 35.368 14.905 36.6617C15.5909 36.7841 16.2856 36.857 16.9759 36.9523C17.6759 36.9523 18.3767 36.9523 19.0766 36.9523C19.1784 36.9307 19.2784 36.9028 19.381 36.8884C20.1538 36.7769 20.937 36.7157 21.6984 36.5493C25.6779 35.6802 29.018 33.6694 31.6301 30.4594C35.5772 25.6101 36.8376 20.0672 35.3667 13.9405C34.3229 9.58783 31.9117 6.12948 28.3751 3.49973C27.8593 3.11647 27.3673 3.08498 26.8191 3.41696C24.8271 4.62522 22.9193 5.95944 21.0993 7.42501C20.4064 7.98281 20.3415 8.69265 20.9554 9.33322C22.2001 10.6314 23.2246 12.1015 24.1605 13.6382C26.6919 17.7947 28.7601 22.1887 30.4328 26.7779C30.8556 27.9376 31.2003 29.127 31.581 30.3019C31.5494 30.3145 31.517 30.328 31.4854 30.3406C31.3617 30.1247 31.238 29.9097 31.1152 29.6937C28.2821 24.7185 25.4876 19.7182 22.2317 15.0147C21.216 13.5473 20.145 12.1258 18.8845 10.8663C18.346 10.3283 17.7145 10.3211 17.1847 10.86C16.8619 11.1892 16.5444 11.5248 16.24 11.8721C14.6506 13.6876 13.2727 15.6732 12.0193 17.7362C9.56242 21.782 7.18715 25.8791 4.77856 29.9547C4.71014 30.0698 4.63997 30.1832 4.56981 30.2965C4.72593 29.512 4.93293 28.7518 5.18204 28.0078C6.55036 23.9313 8.31514 20.0366 10.3632 16.2796C11.7333 13.7668 13.2051 11.3215 15.1822 9.24235C15.726 8.67016 15.6102 7.95042 14.9462 7.41691C13.1341 5.96034 11.2386 4.62792 9.25367 3.43136C8.63968 3.06159 8.25374 3.08318 7.67308 3.50783C6.30476 4.50917 5.08906 5.67694 4.04265 7.02556C2.12963 9.49156 0.894634 12.2743 0.372742 15.3853C0.262222 16.0466 0.188545 16.7123 0.0982018 17.3754Z" fill="#FFFFFE"/>
<path d="M17.2557 0.101663C16.5286 0.188931 15.7909 0.223119 15.0769 0.375164C14.0884 0.585688 13.1113 0.863687 12.1403 1.15248C11.5517 1.32792 11.257 1.73637 11.2386 2.25368C11.2202 2.7611 11.5114 3.13716 12.0727 3.41876C13.3376 4.05303 14.6006 4.6909 15.8488 5.35936C16.3426 5.62386 16.7996 5.96304 17.2627 6.28512C17.7767 6.64319 18.2749 6.64679 18.7872 6.28422C20.4151 5.13444 22.1483 4.18528 23.9754 3.41426C24.5508 3.17135 24.8323 2.7584 24.813 2.25548C24.7929 1.72917 24.4797 1.35221 23.8815 1.13089C22.3474 0.564095 20.7651 0.246511 19.138 0.157443C19.024 0.151145 18.9108 0.120556 18.7968 0.100763C18.2828 0.101663 17.7697 0.101663 17.2557 0.101663Z" fill="#FFFFFE"/>
</svg>
